The Chronicles of Narnia Prince Caspian 2008 720p

Verenigde Staten / Polen / Slovenië / Tsjechië
Avontuur / Fantasy
144 minuten

geregisseerd door Andrew Adamson
met Ben Barnes, Skandar Keynes en de stem van Liam Neeson

Eén jaar na avonturen uit de "The Lion the Witch and the Wardrobe", keren de Koningen en Koninginnen van Narnia terug naar het verre koninkrijk waar ze tot de ontdekking komen dat er al meer dan 1300 Narnia-jaren zijn verstreken.Tijdens hun afwezigheid is er een einde gekomen aan De Gouden Eeuw. Narnia is veroverd door de Telmarijnen en is nu bezet door Koning Miraz, die het land regeert zonder genade. De vier broers en zussen ontmoeten al snel een nieuw intrigerend personage: Narnia's gerechtvaardige erfgenaam op de troon, de jonge Prins Caspian. De prins wordt gedwongen zich schuil te houden voor zijn oom Miraz, die hem wil vermoorden om zo zijn eigen zoon op de troon te plaatsen. Met de hulp van de Rode Dwerg Trompoen, van Rippertjiep, een dappere sprekende muis, de das Truffeljager en de Zwarte Dwerg Nikabrik vangen de Narniërs, geleid door Peter en Caspian, een ongelofelijke tocht aan om de leeuw Aslan te vinden en Narnia te redden uit de klauwen van Miraz. Zo trachten ze de magie en glorie van Narnia te herstellen ...

English

Storyline
The four Pevensie children return to Narnia, only to discover that hundreds of years have passed since they ruled there, and the evil King Miraz has taken charge. With the help of a heroic mouse called Reepicheep, and the exiled heir to the throne, Prince Caspian, they set out to overthrow the King, once again with Aslan's help.



RELEASE.NAME..: The.Chronicles.of.Narnia.Prince.Caspian.2008.720p.       
                  BluRay.DTS.x264-ESiR                                     
  RELEASE.DATE..: 15.11.2008                                               
  THEATRE.DATE..: 09.05.2008 (Festival Internacional de Cine Acapulco)     
  RUNTiME.......: 2:29:58                                                  
  SiZE..........: 6.55 GB                                                  
  ViDEO.CODEC...: x264                                                     
  FRAMERATE.....: 23.976                                                  
  BiTRATE.......: 4669kbps                                                 
  RESOLUTiON....: 1280x532 (2.41:1)                                        
  AUDiO.........: English DTS 5.1 @ 1.5mbit                               
  AUDiO.........: English Commentary Vorbis 2.0 @ 80kbps                  
  SUBTiTLES.....: Eng,Fin,Fre,Dut,Por,Spa,Swe - ASS                        
  SOURCE........: The.Chronicles.of.Narnia.Prince.Caspian.2008.1080p.     
                  Blu-ray.NORDiC.AVC.DTSHD-GMoRK  




Weblink :  http://www.moviemeter.nl/film/43836
Weblink :  http://www.imdb.com/title/tt0499448/

TBS

MEDIA INFO

General
Complete name                    : The_Chronicles_of_Narnia bluray prins capian720p multi subs\The.Chronicles.of.Narnia.Prince.Caspian.2008.720p.BluRay.DTS.x264-ESiR.mkv
Format                           : Matroska
File size                        : 6.55 GiB
Duration                         : 2h 29mn
Overall bit rate                 : 6 254 Kbps
Movie name                       : The Chronicles of Narnia: Prince Caspian (2008)
Encoded date                     : UTC 2008-11-15 18:15:45
Writing application              : mkvmerge v2.4.0 ('Fumbling Towards Ecstasy') built on Oct 11 2008 20:13:15
Writing library                  : libebml v0.7.7 + libmatroska v0.8.1

Video
ID                               : 1
Format                           : AVC
Format/Info                      : Advanced Video Codec
Format profile                   : High@L4.1
Format settings, CABAC           : Yes
Format settings, ReFrames        : 12 frames
Muxing mode                      : Container profile=Unknown@4.1
Codec ID                         : V_MPEG4/ISO/AVC
Duration                         : 2h 29mn
Bit rate                         : 4 669 Kbps
Width                            : 1 280 pixels
Height                           : 532 pixels
Display aspect ratio             : 2.40:1
Frame rate                       : 23.976 fps
Color space                      : YUV
Chroma subsampling               : 4:2:0
Bit depth                        : 8 bits
Scan type                        : Progressive
Bits/(Pixel*Frame)               : 0.286
Stream size                      : 4.76 GiB (73%)
Title                            : x264 @ 4669kbps
Writing library                  : x264 core 65 r1019 a5ac6a5
Encoding settings                : cabac=1 / ref=12 / deblock=1:-3:-3 / analyse=0x3:0x113 / me=umh / subme=9 / psy_rd=0.7:0.3 / mixed_ref=1 / me_range=24 / chroma_me=1 / trellis=2 / 8x8dct=1 / cqm=0 / deadzone=8,6 / chroma_qp_offset=-4 / threads=6 / nr=0 / decimate=1 / mbaff=0 / bframes=3 / b_pyramid=1 / b_adapt=2 / b_bias=0 / direct=1 / wpredb=1 / keyint=250 / keyint_min=25 / scenecut=40(pre) / rc=2pass / bitrate=4669 / ratetol=1.0 / qcomp=0.60 / qpmin=10 / qpmax=51 / qpstep=4 / cplxblur=20.0 / qblur=0.5 / vbv_maxrate=50000 / vbv_bufsize=40000 / ip_ratio=1.40 / pb_ratio=1.30 / aq=1:0.70
Language                         : English

Audio #1
ID                               : 2
Format                           : DTS
Format/Info                      : Digital Theater Systems
Codec ID                         : A_DTS
Duration                         : 2h 29mn
Bit rate mode                    : Constant
Bit rate                         : 1 510 Kbps
Channel(s)                       : 6 channels
Channel positions                : Front: L C R, Side: L R, LFE
Sampling rate                    : 48.0 KHz
Bit depth                        : 24 bits
Stream size                      : 1.58 GiB (24%)
Title                            : DTS 5.1 @ 1.5mbit (core)
Language                         : English

Audio #2
ID                               : 3
Format                           : Vorbis
Format settings, Floor           : 1
Codec ID                         : A_VORBIS
Duration                         : 2h 29mn
Bit rate                         : 80.0 Kbps
Channel(s)                       : 2 channels
Sampling rate                    : 48.0 KHz
Stream size                      : 85.8 MiB (1%)
Title                            : English Commentary Track
Writing library                  : libVorbis 1.2 (UTC 2007-06-22)

Text #1
ID                               : 4
Format                           : ASS
Codec ID                         : S_TEXT/ASS
Codec ID/Info                    : Advanced Sub Station Alpha
Language                         : English

Text #2
ID                               : 5
Format                           : ASS
Codec ID                         : S_TEXT/ASS
Codec ID/Info                    : Advanced Sub Station Alpha
Language                         : Finnish

Text #3
ID                               : 6
Format                           : ASS
Codec ID                         : S_TEXT/ASS
Codec ID/Info                    : Advanced Sub Station Alpha
Language                         : French

Text #4
ID                               : 7
Format                           : ASS
Codec ID                         : S_TEXT/ASS
Codec ID/Info                    : Advanced Sub Station Alpha
Language                         : Dutch

Text #5
ID                               : 8
Format                           : ASS
Codec ID                         : S_TEXT/ASS
Codec ID/Info                    : Advanced Sub Station Alpha
Language                         : Portuguese

Text #6
ID                               : 9
Format                           : ASS
Codec ID                         : S_TEXT/ASS
Codec ID/Info                    : Advanced Sub Station Alpha
Language                         : Spanish

Text #7
ID                               : 10
Format                           : ASS
Codec ID                         : S_TEXT/ASS
Codec ID/Info                    : Advanced Sub Station Alpha
Language                         : Swedish

